<svg data-v-0dd9719b="" version="1.0" xmlns="http://www.w3.org/2000/svg" xmlns:xlink="http://www.w3.org/1999/xlink" width="100%" height="100%" viewBox="0 0 340.000000 250.000000" preserveAspectRatio="xMidYMid meet" color-interpolation-filters="sRGB" style="margin: auto;"> <rect data-v-0dd9719b="" x="0" y="0" width="100%" height="100%" fill="#fff" fill-opacity="1" class="background"></rect> <rect data-v-0dd9719b="" x="0" y="0" width="100%" height="100%" fill="url(#watermark)" fill-opacity="1" class="watermarklayer"></rect> <g data-v-0dd9719b="" fill="#ff304f" class="icon-text-wrapper icon-svg-group iconsvg" transform="translate(48.06999969482422,106.42000770568848)"><g class="iconsvg-imagesvg" transform="translate(0,0)"><g><rect fill="#ff304f" fill-opacity="0" stroke-width="2" x="0" y="0" width="60" height="37.15998612693851" class="image-rect"></rect> <svg x="0" y="0" width="60" height="37.15998612693851" filtersec="colorsb6014584136" class="image-svg-svg primary" style="overflow: visible;"><svg xmlns="http://www.w3.org/2000/svg" viewBox="0 -0.00010728836059570312 181.40000915527344 112.34689331054688"><title>资源 38</title><g><g fill="#ff304f"><path d="M19.32 3.61c12.12 28.36 24 56 35.73 83.66 9.72 23 40.26 31.21 54.52 20.29-11.6-27.23-22.8-54.75-35-81.82C64.33 3.07 42.42-5.56 19.32 3.61zM91 3.78c12.39 28.86 23.78 57.15 36.63 84.75 10 21.36 34.16 29.56 53.77 19-12.51-28.85-24.21-58.2-37.9-86.6C134.23 1.74 111.59-4.88 91 3.78zM20.24 67L0 110.54h39a51.42 51.42 0 0 0-1.74-5.69C31.91 92.9 26.52 81 20.24 67z"></path><path d="M19.32 3.61c23.1-9.17 45-.54 55.24 22.13 12.21 27.07 23.41 54.59 35 81.82-14.26 10.92-44.8 2.74-54.52-20.29C43.35 59.57 31.44 32 19.32 3.61zM91 3.78c20.62-8.66 43.26-2 52.5 17.12 13.69 28.4 25.39 57.75 37.9 86.6-19.61 10.59-43.82 2.39-53.77-19C114.75 60.93 103.36 32.64 91 3.78zM20.24 67c6.28 14 11.67 25.87 17 37.82a51.42 51.42 0 0 1 1.76 5.72H0z"></path></g></g></svg></svg> <!----></g></g> <g transform="translate(67,3.914992332458496)"><g data-gra="path-name" fill-rule="" class="tp-name iconsvg-namesvg"><g transform="scale(1)"><g><path d="M2.85 0L8.34 0 8.34-18.77 8.55-18.77 16.42-3.81 20.32-3.81 28.74-18.77 28.95-18.77 28.95 0 34.61 0 34.61-29.33 28.87-29.33 18.73-10.6 18.56-10.6 8.51-29.33 2.85-29.33ZM40.18 0L61.89 0 61.89-5.53 45.88-5.53 45.88-12.4 60.54-12.4 60.54-17.6 45.88-17.6 45.88-23.84 61.89-23.84 61.89-29.33 40.18-29.33ZM65.41 0L70.89 0 70.89-18.77 71.1-18.77 78.98-3.81 82.88-3.81 91.3-18.77 91.51-18.77 91.51 0 97.16 0 97.16-29.33 91.42-29.33 81.28-10.6 81.12-10.6 71.06-29.33 65.41-29.33ZM102.74 0L124.44 0 124.44-5.53 108.44-5.53 108.44-12.4 123.1-12.4 123.1-17.6 108.44-17.6 108.44-23.84 124.44-23.84 124.44-29.33 102.74-29.33ZM127.96 0L133.45 0 133.45-19.94 133.66-19.94 147.78 0 153.31 0 153.31-29.33 147.91-29.33 147.91-9.13 147.7-9.13 133.53-29.33 127.96-29.33ZM156.41-29.33L156.41-24.51 165.25-24.51 165.25 0 170.91 0 170.91-24.51 179.71-24.51 179.71-29.33Z" transform="translate(-2.8499999046325684, 29.329999923706055)"></path></g> <!----> <!----> <!----> <!----> <!----> <!----> <!----></g></g> <!----></g></g><defs v-gra="od"></defs></svg>